<svg width="58" height="146" xmlns="http://www.w3.org/2000/svg" xmlns:xlink="http://www.w3.org/1999/xlink" xml:space="preserve" overflow="hidden"><defs><clipPath id="clip0"><rect x="40" y="335" width="58" height="146"/></clipPath></defs><g clip-path="url(#clip0)" transform="translate(-40 -335)"><path d="M31.601 122.867 31.601 137.622 44.8005 145 58 137.622 58 122.867 44.8005 115.489Z" fill="#E31F1B" fill-rule="evenodd" transform="matrix(1 0 0 1.0069 40 335)"/><path d="M31.601 122.867 31.601 137.622 44.8005 145 58 137.622 58 122.867 44.8005 115.489Z" fill="#F00A0A" fill-rule="evenodd" transform="matrix(1 0 0 1.0069 40 335)"/><path d="M32.1005 80.7881C27.3095 84.2465 23.1764 84.9084 18.1153 83.9639 13.9218 83.1808 11.3386 81.7175 8.77683 80.3723L0 98.7682C9.84899 105.753 21.0955 107.172 32.1005 103.912L32.1005 80.7881Z" fill="#FFFFFF" fill-rule="evenodd" transform="matrix(1 0 0 1.0069 40 335)"/><path d="M32.1005 103.912C46.7344 100.311 57.5011 85.7539 57.5011 71.7671L57.5011 0 32.1005 0 32.1005 57.4179 32.1005 66.3025 32.1005 102.672 32.1005 103.912Z" fill="#F00A0A" fill-rule="evenodd" transform="matrix(1 0 0 1.0069 40 335)"/></g></svg>